<svg width="120" height="120" viewBox="0 0 120 120" fill="none" xmlns="http://www.w3.org/2000/svg">
<rect width="120" height="120" rx="16" fill="#1F2937"/>
<path d="M29.824 66.532L27.872 68.452L17.984 60.516L27.872 52.228L29.824 54.148L21.952 60.516L29.824 66.532ZM88.8998 45.604L77.9878 73.284H75.0757L86.0838 45.604H88.8998ZM97.9505 60.516L90.0465 54.148L91.9665 52.228L101.887 60.516L91.9665 68.452L90.0465 66.532L97.9505 60.516Z" fill="#34D399"/>
<path d="M51.5205 62.212H43.6485V70.5H40.4805V53.892L43.2645 51.172H40.0965V48.388H51.5205V51.172H43.6485V61.828L45.9845 59.428H51.5205V62.212ZM68.7553 67.716L65.9713 70.5H58.0673L55.3153 67.716V51.172L58.0673 48.388H65.9713L68.7553 51.172V53.476L65.5873 56.676V51.172H58.4833V67.716H65.5873V65.38L68.7553 62.212V67.716Z" fill="white"/>
</svg>
