<svg width="290" height="39" viewBox="0 0 290 39" fill="none" xmlns="http://www.w3.org/2000/svg">
<path d="M13.824 26.032L11.872 27.952L1.984 20.016L11.872 11.728L13.824 13.648L5.952 20.016L13.824 26.032ZM274.212 5.104L263.3 32.784H260.388L271.396 5.104H274.212ZM283.263 20.016L275.359 13.648L277.279 11.728L287.199 20.016L277.279 27.952L275.359 26.032L283.263 20.016Z" fill="#34D399"/>
<path d="M35.5205 21.712H27.6485V30H24.4805V13.392L27.2645 10.672H24.0965V7.888H35.5205V10.672H27.6485V21.328L29.9845 18.928H35.5205V21.712ZM50.4193 27.216L47.6673 30H41.7473L38.9953 27.216V16.176L41.7473 13.392H47.6673L50.4193 16.176V27.216ZM47.2833 27.216V16.176H42.1633V27.216H47.2833ZM66.699 18.928L63.531 22.096V16.176H58.827V30H55.659V13.392H58.827V15.792L61.131 13.392H63.947L66.699 16.176V18.928ZM89.4155 30H86.2475V16.176H81.5115V30H78.3435V16.176H73.6395V30H70.4715V13.392H73.6395V15.792L75.9755 13.392H79.1435L81.0955 15.408L83.0795 13.392H86.6315L89.4155 16.176V30ZM108.193 27.216L105.409 30H97.5048L94.7528 27.216V10.672L97.5048 7.888H105.409L108.193 10.672V12.976L105.025 16.176V10.672H97.9208V27.216H105.025V24.88L108.193 21.712V27.216ZM123.638 27.216L120.886 30H114.966L112.214 27.216V16.176L114.966 13.392H120.886L123.638 16.176V27.216ZM120.502 27.216V16.176H115.382V27.216H120.502ZM147.822 30H144.654V16.176H139.918V30H136.75V16.176H132.046V30H128.878V13.392H132.046V15.792L134.382 13.392H137.55L139.502 15.408L141.486 13.392H145.038L147.822 16.176V30ZM164.679 27.216L161.959 30H156.391V38.288H153.223V13.392H156.391V15.792L158.695 13.392H161.959L164.679 16.176V27.216ZM161.511 27.216V16.176H156.391V29.616L158.695 27.216H161.511ZM181.013 27.216L178.261 30H172.341L169.589 27.216V16.176L172.341 13.392H178.261L181.013 16.176V27.216ZM177.877 27.216V16.176H172.757V27.216H177.877ZM197.677 30H194.541V16.176H189.421V30H186.253V13.392H189.421V15.792L191.757 13.392H194.925L197.677 16.176V30ZM214.138 30H205.466L202.714 27.216V16.176L205.466 13.392H211.386L214.138 16.176V21.712L211.386 24.464H206.266L209.082 21.712H211.002V16.176H205.882V27.216H214.138V30ZM230.052 30H226.916V16.176H221.796V30H218.628V13.392H221.796V15.792L224.132 13.392H227.3L230.052 16.176V30ZM243.505 13.392L240.721 16.176H238.737V27.216H242.673V30H238.353L235.569 27.216V16.176H231.633L234.417 13.392H235.569V11.056L238.737 7.888V13.392H243.505ZM255.254 16.176H247.35V18.928H251.702L254.486 21.712V27.216L251.702 30H244.182V27.216H251.318V21.712H246.966L244.182 18.928V16.176L246.966 13.392H252.438L255.254 16.176Z" fill="#1F2937"/>
</svg>
